<svg width="95" height="40" viewBox="0 0 95 40" fill="none" xmlns="http://www.w3.org/2000/svg">
<path d="M5.50284 10.0909V29H1.5696V10.0909H5.50284ZM12.6976 29.2678C11.7928 29.2678 10.9864 29.1108 10.2786 28.7969C9.57073 28.4768 9.01059 28.0059 8.59819 27.3842C8.19194 26.7564 7.98881 25.9747 7.98881 25.0391C7.98881 24.2512 8.13346 23.5895 8.42276 23.054C8.71206 22.5185 9.106 22.0876 9.60458 21.7614C10.1032 21.4351 10.6694 21.1889 11.3034 21.0227C11.9436 20.8565 12.6145 20.7396 13.3162 20.6719C14.141 20.5857 14.8058 20.5057 15.3105 20.4318C15.8153 20.3518 16.1815 20.2348 16.4093 20.081C16.637 19.9271 16.7509 19.6993 16.7509 19.3977V19.3423C16.7509 18.7576 16.5662 18.3052 16.1969 17.9851C15.8337 17.665 15.3167 17.505 14.6458 17.505C13.9379 17.505 13.3747 17.6619 12.9561 17.9759C12.5376 18.2836 12.2606 18.6714 12.1252 19.1392L8.48739 18.8438C8.67205 17.982 9.03522 17.2372 9.57688 16.6094C10.1185 15.9754 10.8172 15.4891 11.6728 15.1506C12.5345 14.8059 13.5317 14.6335 14.6642 14.6335C15.4521 14.6335 16.2061 14.7259 16.9263 14.9105C17.6526 15.0952 18.2959 15.3814 18.856 15.7692C19.4223 16.157 19.8685 16.6555 20.1948 17.2649C20.521 17.8681 20.6841 18.5914 20.6841 19.4347V29H16.954V27.0334H16.8432C16.6155 27.4766 16.3108 27.8674 15.9292 28.206C15.5475 28.5384 15.089 28.8 14.5534 28.9908C14.0179 29.1754 13.3993 29.2678 12.6976 29.2678ZM13.824 26.5533C14.4026 26.5533 14.9135 26.4394 15.3567 26.2116C15.7999 25.9777 16.1477 25.6638 16.4 25.2699C16.6524 24.8759 16.7786 24.4297 16.7786 23.9311V22.4261C16.6555 22.5062 16.4862 22.58 16.2708 22.6477C16.0615 22.7093 15.8245 22.7678 15.5598 22.8232C15.2952 22.8724 15.0305 22.9186 14.7658 22.9616C14.5011 22.9986 14.2611 23.0324 14.0456 23.0632C13.584 23.1309 13.1808 23.2386 12.8361 23.3864C12.4914 23.5341 12.2237 23.7341 12.0328 23.9865C11.842 24.2327 11.7466 24.5405 11.7466 24.9098C11.7466 25.4453 11.9405 25.8546 12.3283 26.1378C12.7222 26.4148 13.2208 26.5533 13.824 26.5533ZM27.6689 20.8011V29H23.7356V14.8182H27.4842V17.3203H27.6504C27.9643 16.4955 28.4906 15.843 29.2292 15.3629C29.9679 14.8767 30.8635 14.6335 31.916 14.6335C32.9009 14.6335 33.7595 14.849 34.492 15.2798C35.2245 15.7107 35.7939 16.3262 36.2001 17.1264C36.6064 17.9205 36.8095 18.8684 36.8095 19.9702V29H32.8762V20.6719C32.8824 19.804 32.6608 19.1269 32.2115 18.6406C31.7621 18.1482 31.1435 17.902 30.3556 17.902C29.8263 17.902 29.3585 18.0159 28.9522 18.2436C28.5521 18.4714 28.2382 18.8037 28.0105 19.2408C27.7889 19.6716 27.675 20.1918 27.6689 20.8011ZM45.1353 29.2308C44.0581 29.2308 43.0825 28.9538 42.2085 28.3999C41.3406 27.8397 40.6512 27.018 40.1403 25.9347C39.6355 24.8452 39.3832 23.5095 39.3832 21.9276C39.3832 20.3026 39.6448 18.9515 40.168 17.8743C40.6912 16.791 41.3867 15.9815 42.2546 15.446C43.1287 14.9044 44.0858 14.6335 45.1261 14.6335C45.9201 14.6335 46.5818 14.7689 47.1112 15.0398C47.6467 15.3045 48.0775 15.6368 48.4038 16.0369C48.7362 16.4309 48.9885 16.8187 49.1609 17.2003H49.2809V10.0909H53.2049V29H49.3271V26.7287H49.1609C48.9762 27.1226 48.7146 27.5135 48.3761 27.9013C48.0437 28.2829 47.6097 28.5999 47.0742 28.8523C46.5449 29.1046 45.8986 29.2308 45.1353 29.2308ZM46.3817 26.1009C47.0157 26.1009 47.5513 25.9285 47.9883 25.5838C48.4315 25.233 48.77 24.7436 49.0039 24.1158C49.244 23.4879 49.364 22.7524 49.364 21.9091C49.364 21.0658 49.247 20.3333 49.0131 19.7116C48.7792 19.09 48.4407 18.6098 47.9975 18.2713C47.5543 17.9328 47.0157 17.7635 46.3817 17.7635C45.7354 17.7635 45.1907 17.9389 44.7475 18.2898C44.3043 18.6406 43.9689 19.1269 43.7411 19.7486C43.5134 20.3703 43.3995 21.0904 43.3995 21.9091C43.3995 22.7339 43.5134 23.4633 43.7411 24.0973C43.975 24.7251 44.3105 25.2176 44.7475 25.5746C45.1907 25.9254 45.7354 26.1009 46.3817 26.1009Z" fill="#333333"/>
<rect x="55" width="40" height="40" rx="4" fill="#333333"/>
<path d="M75.0199 19.5455C75.0199 21.6075 74.629 23.3617 73.8473 24.8082C73.0717 26.2547 72.013 27.3596 70.6712 28.1229C69.3355 28.88 67.8336 29.2585 66.1655 29.2585C64.4851 29.2585 62.977 28.8769 61.6413 28.1136C60.3056 27.3504 59.25 26.2455 58.4744 24.799C57.6989 23.3525 57.3111 21.6013 57.3111 19.5455C57.3111 17.4834 57.6989 15.7292 58.4744 14.2827C59.25 12.8362 60.3056 11.7344 61.6413 10.9773C62.977 10.214 64.4851 9.83239 66.1655 9.83239C67.8336 9.83239 69.3355 10.214 70.6712 10.9773C72.013 11.7344 73.0717 12.8362 73.8473 14.2827C74.629 15.7292 75.0199 17.4834 75.0199 19.5455ZM70.9666 19.5455C70.9666 18.2098 70.7666 17.0833 70.3665 16.1662C69.9725 15.2491 69.4155 14.5535 68.6953 14.0795C67.9751 13.6056 67.1319 13.3686 66.1655 13.3686C65.1991 13.3686 64.3558 13.6056 63.6357 14.0795C62.9155 14.5535 62.3554 15.2491 61.9553 16.1662C61.5613 17.0833 61.3643 18.2098 61.3643 19.5455C61.3643 20.8812 61.5613 22.0076 61.9553 22.9247C62.3554 23.8419 62.9155 24.5374 63.6357 25.0114C64.3558 25.4853 65.1991 25.7223 66.1655 25.7223C67.1319 25.7223 67.9751 25.4853 68.6953 25.0114C69.4155 24.5374 69.9725 23.8419 70.3665 22.9247C70.7666 22.0076 70.9666 20.8812 70.9666 19.5455ZM88.2392 15.5291C88.1653 14.7843 87.8483 14.2057 87.2882 13.7933C86.728 13.3809 85.9679 13.1747 85.0076 13.1747C84.3552 13.1747 83.8043 13.267 83.3549 13.4517C82.9056 13.6302 82.5609 13.8795 82.3208 14.1996C82.0869 14.5196 81.97 14.8828 81.97 15.2891C81.9577 15.6276 82.0285 15.9231 82.1824 16.1754C82.3424 16.4278 82.5609 16.6463 82.8379 16.831C83.1149 17.0095 83.435 17.1664 83.7981 17.3018C84.1613 17.4311 84.5491 17.5419 84.9615 17.6342L86.6603 18.0405C87.4851 18.2251 88.2422 18.4714 88.9316 18.7791C89.621 19.0869 90.2181 19.4654 90.7228 19.9148C91.2276 20.3641 91.6184 20.8935 91.8954 21.5028C92.1786 22.1122 92.3232 22.8108 92.3294 23.5987C92.3232 24.7559 92.0278 25.7592 91.443 26.6087C90.8644 27.4519 90.0273 28.1075 88.9316 28.5753C87.8422 29.0369 86.528 29.2678 84.9892 29.2678C83.4627 29.2678 82.1331 29.0339 81.0005 28.5661C79.8741 28.0982 78.9939 27.4058 78.3599 26.4886C77.7321 25.5653 77.4028 24.4235 77.372 23.0632H81.2406C81.2837 23.6972 81.4653 24.2266 81.7853 24.6513C82.1116 25.0698 82.5455 25.3868 83.0872 25.6023C83.635 25.8116 84.2536 25.9162 84.943 25.9162C85.6201 25.9162 86.2079 25.8177 86.7065 25.6207C87.2112 25.4238 87.6021 25.1499 87.8791 24.799C88.1561 24.4482 88.2946 24.045 88.2946 23.5895C88.2946 23.1648 88.1684 22.8078 87.916 22.5185C87.6698 22.2292 87.3066 21.983 86.8265 21.7798C86.3526 21.5767 85.7709 21.392 85.0815 21.2259L83.0225 20.7088C81.4283 20.321 80.1696 19.7147 79.2463 18.8899C78.323 18.0651 77.8644 16.9541 77.8706 15.5568C77.8644 14.4119 78.1691 13.4117 78.7846 12.5561C79.4063 11.7005 80.2588 11.0327 81.3422 10.5526C82.4255 10.0724 83.6565 9.83239 85.0353 9.83239C86.4387 9.83239 87.6636 10.0724 88.71 10.5526C89.7626 11.0327 90.5813 11.7005 91.166 12.5561C91.7508 13.4117 92.0524 14.4027 92.0708 15.5291H88.2392Z" fill="white"/>
</svg>
